<?xml version="1.0" encoding="UTF-8"?>
<svg version="1.1" xmlns="http://www.w3.org/2000/svg" width="1024" height="1024">
<path d="M0 0 C337.92 0 675.84 0 1024 0 C1024 337.92 1024 675.84 1024 1024 C686.08 1024 348.16 1024 0 1024 C0 686.08 0 348.16 0 0 Z " fill="#F8F8F9" transform="translate(0,0)"/>
<path d="M0 0 C5.00160171 6.79708665 3.56182118 15.33257403 2.44482422 23.28662109 C1.69826948 28.10302595 0.81725236 32.89400808 -0.0625 37.6875 C-0.55185364 40.43096612 -1.03670824 43.17520283 -1.52114868 45.91954041 C-1.85481574 47.80930225 -2.18976722 49.69883774 -2.52597046 51.58815002 C-3.62082837 57.76107553 -4.65582072 63.94079664 -5.63671875 70.1328125 C-5.7685405 70.96450958 -5.90036224 71.79620667 -6.03617859 72.65310669 C-6.30471051 74.34886687 -6.57317835 76.04463719 -6.84158325 77.74041748 C-9.83054637 96.56398389 -13.17824334 115.31833977 -16.625 134.0625 C-16.85497681 135.31406891 -17.08495361 136.56563782 -17.32189941 137.85513306 C-18.64927008 145.06652792 -19.99117088 152.27506647 -21.34387207 159.48175049 C-22.00783211 163.04199687 -22.65832648 166.60453268 -23.30761719 170.16748047 C-23.73336145 172.46458545 -24.15945393 174.76162592 -24.5859375 177.05859375 C-24.77016266 178.08662613 -24.95438782 179.11465851 -25.14419556 180.17384338 C-28.32618524 197.11802943 -34.01390265 208.6436609 -46.26618958 220.75393677 C-47.32160406 221.81181512 -48.37614006 222.87057051 -49.42987746 223.9301194 C-52.31302043 226.82409843 -55.20842021 229.7055299 -58.1060611 232.58498263 C-61.2347402 235.69839733 -64.35181112 238.82339705 -67.47035217 241.94696045 C-73.57559698 248.05842218 -79.69137351 254.15923867 -85.81070713 260.25658979 C-92.94041507 267.36157161 -100.05918974 274.47746612 -107.17744251 281.59392141 C-119.8811944 294.29379885 -132.59420975 306.9843618 -145.31274414 319.66943359 C-157.64650263 331.97076841 -169.97466317 344.27767427 -182.29614258 356.59130859 C-183.0549766 357.34965713 -183.81381063 358.10800566 -184.59563962 358.88933446 C-187.64608021 361.93784619 -190.69651244 364.98636629 -193.74692618 368.0349049 C-205.49946611 379.77990505 -217.2560467 391.52086013 -229.01347968 403.26096181 C-232.56242732 406.80467932 -236.11122649 410.34854521 -239.65965867 413.89277887 C-247.12032289 421.34450925 -254.58242565 428.79478824 -262.04902152 436.24057569 C-265.13572879 439.31871124 -268.22169594 442.39757815 -271.30554199 445.47858047 C-274.13167282 448.30202895 -276.960116 451.12313976 -279.79038843 453.94243644 C-280.81073987 454.95960303 -281.83027847 455.97758585 -282.84889326 456.99649157 C-287.88011252 462.02816943 -292.94989822 466.93885375 -298.34955162 471.57463467 C-300.28065032 473.2423761 -302.10928161 474.98868267 -303.90975952 476.79623413 C-304.57417053 477.46071564 -305.23858154 478.12519714 -305.92312622 478.80981445 C-306.62057953 479.51243408 -307.31803284 480.21505371 -308.03662109 480.93896484 C-308.79535522 481.69915924 -309.55408936 482.45935364 -310.33581543 483.24258423 C-311.96833007 484.87887941 -313.59968938 486.51632792 -315.22999191 488.15482712 C-317.80796818 490.74564012 -320.3891198 493.33325194 -322.97109985 495.92007446 C-328.44188584 501.40224207 -333.90871484 506.88834508 -339.375 512.375 C-345.73138101 518.75496839 -352.08936626 525.13332073 -358.45155716 531.50749588 C-360.99850646 534.06094285 -363.54243528 536.61737355 -366.08627319 539.17391968 C-367.6372839 540.7285605 -369.18843382 542.28306245 -370.73974609 543.83740234 C-371.44934479 544.55216736 -372.15894348 545.26693237 -372.89004517 546.00335693 C-373.53753723 546.65091949 -374.1850293 547.29848206 -374.85214233 547.96566772 C-375.41510702 548.53085302 -375.97807171 549.09603832 -376.55809593 549.67835045 C-378.58305183 551.53442542 -379.94769196 551.99071175 -382.67153931 552.47438049 C-387.6442628 551.76565558 -389.85349684 548.93319414 -393.25537109 545.40991211 C-393.95540756 544.70914551 -394.65544403 544.00837891 -395.37669373 543.28637695 C-397.68997244 540.96381388 -399.98136953 538.62082581 -402.2734375 536.27734375 C-403.88098607 534.65605668 -405.48994508 533.03616698 -407.10025024 531.4176178 C-411.34194893 527.14732532 -415.56578401 522.85979366 -419.78570557 518.56799316 C-424.89537217 513.37702573 -430.02375391 508.20456423 -435.15140724 503.03137302 C-439.14606779 499.00108681 -443.1372119 494.96754323 -447.11752319 490.92308044 C-447.85552658 490.17512711 -448.59352997 489.42717377 -449.35389709 488.65655518 C-450.71765648 487.27439682 -452.07942528 485.89026974 -453.43861389 484.50361633 C-457.29732464 480.59924205 -461.28544122 476.96566086 -465.51416969 473.46303654 C-466.00449369 472.98023448 -466.4948177 472.49743242 -467 472 C-467 471.34 -467 470.68 -467 470 C-467.58495082 469.73925595 -468.16990164 469.47851191 -468.77257824 469.20986652 C-471.14397569 467.92179686 -472.72434574 466.53785716 -474.63874817 464.64213562 C-475.69672607 463.60128815 -475.69672607 463.60128815 -476.77607727 462.53941345 C-477.53937851 461.77834793 -478.30267975 461.01728241 -479.08911133 460.2331543 C-479.90084808 459.43134735 -480.71258484 458.62954041 -481.54891968 457.80343628 C-484.23225601 455.14931228 -486.90774007 452.4874547 -489.58203125 449.82421875 C-491.43958351 447.97816786 -493.29714281 446.13212405 -495.15470886 444.28608704 C-498.54952195 440.91039893 -501.94066267 437.53106411 -505.32895643 434.14883298 C-510.31758777 429.16917736 -515.31904525 424.20289443 -520.33203107 419.24775952 C-524.67417795 414.95399473 -528.99977154 410.64390311 -533.31952477 406.32761574 C-535.16024807 404.49296231 -537.00599169 402.66333198 -538.85672951 400.83878136 C-541.43806473 398.29139452 -543.99997995 395.72593539 -546.55786133 393.1550293 C-547.71799492 392.02254005 -547.71799492 392.02254005 -548.90156555 390.86717224 C-549.59278503 390.16481445 -550.28400452 389.46245667 -550.99617004 388.73881531 C-551.90786563 387.8315194 -551.90786563 387.8315194 -552.83797932 386.90589428 C-554 385 -554 385 -553.90120298 382.74004567 C-552.69328291 379.06744779 -550.44166215 376.89675498 -547.74277306 374.25337505 C-546.90844308 373.41257141 -546.90844308 373.41257141 -546.05725795 372.55478182 C-544.18048703 370.66838303 -542.28972215 368.79666285 -540.39877319 366.92448425 C-539.04085836 365.56554171 -537.68382384 364.20571905 -536.32759821 362.84509069 C-532.58980293 359.10027243 -528.8396176 355.36807822 -525.0873611 351.63775766 C-521.04589383 347.61557701 -517.01595937 343.58187134 -512.98464966 339.54951477 C-505.99407949 332.56025956 -498.99626482 325.57832586 -491.99357224 318.60121727 C-481.86066817 308.50522303 -471.73928094 298.39774717 -461.62077887 288.28732125 C-445.19408188 271.87426764 -428.7588564 255.46978477 -412.31787109 239.07104492 C-396.36332821 223.15742765 -380.41152622 207.24107356 -364.46435547 191.32006836 C-363.97342999 190.82995205 -363.48250451 190.33983573 -362.97670249 189.83486741 C-351.76473439 178.64134651 -340.55365665 167.44693419 -329.34328651 156.25181293 C-328.39177658 155.30160321 -327.44026633 154.3513938 -326.48875577 153.40118471 C-325.54096734 152.45469106 -324.59317904 151.50819729 -323.64539087 150.56170338 C-323.17766046 150.09461207 -322.70993005 149.62752076 -322.22802599 149.14627516 C-319.88223886 146.80368666 -317.53647428 144.46107558 -315.19073732 142.11843685 C-304.16515482 131.10749618 -293.13708729 120.09905758 -282.10456629 109.09506879 C-275.18126195 102.18962345 -268.25950925 95.28262573 -261.33896534 88.37441393 C-256.57953172 83.62368334 -251.81802673 78.87504263 -247.05486979 74.12804527 C-244.16192917 71.24385111 -241.2710977 68.35755031 -238.380879 65.47062878 C-237.05934479 64.1514447 -235.73694893 62.83312311 -234.41359572 61.51576378 C-225.58409708 52.75401312 -225.58409708 52.75401312 -217.31093371 43.47108918 C-215.48457662 41.42160785 -213.50061331 40.04327932 -211.125 38.6875 C-210.36445312 38.23761719 -209.60390625 37.78773438 -208.8203125 37.32421875 C-201.99994104 34.12185597 -194.85313239 32.39858511 -187.484375 30.98217773 C-186.57665848 30.80273117 -185.66894196 30.62328461 -184.73371887 30.43840027 C-181.74019571 29.84797746 -178.7451233 29.26583983 -175.75 28.68359375 C-173.61569299 28.26399727 -171.4814993 27.84382404 -169.34741211 27.42311096 C-163.70539517 26.31220741 -158.06207983 25.2080519 -152.418396 24.10565186 C-143.56669101 22.37551786 -134.71689689 20.63561904 -125.86711121 18.89569855 C-123.66160495 18.46215059 -121.45604857 18.02885748 -119.2504425 17.59581757 C-100.59973489 13.93287877 -81.97057594 10.16996314 -63.3527832 6.34336853 C-51.74682708 3.95890066 -40.13275146 1.62529981 -28.5 -0.625 C-27.82869238 -0.75526235 -27.15738476 -0.88552469 -26.46573448 -1.01973438 C-6.94731767 -4.79695744 -6.94731767 -4.79695744 0 0 Z " fill="#676AF3" transform="translate(844,231)"/>
<path d="M0 0 C0.81324738 -0.00385712 1.62649475 -0.00771423 2.46438599 -0.01168823 C16.60017269 -0.04465789 30.304824 0.861184 43.9375 4.9375 C44.8155127 5.19547363 45.69352539 5.45344727 46.59814453 5.71923828 C82.61778094 16.62355757 113.35166216 36.70564797 136.75 66.3125 C137.17200684 66.83634277 137.59401367 67.36018555 138.02880859 67.89990234 C139.3033378 69.48573759 140.55982707 71.084368 141.8125 72.6875 C142.56660156 73.64398438 143.32070313 74.60046875 144.09765625 75.5859375 C145.98159257 78.69465511 146.30169496 79.75831635 145.75 83.3125 C144.14319739 85.40564499 142.6163161 87.11100415 140.74355316 88.93697929 C140.20229361 89.48430767 139.66103405 90.03163604 139.10337269 90.59555012 C137.27378044 92.43945939 135.42678829 94.26489828 133.57946777 96.09103394 C132.25591535 97.41748102 130.93346041 98.74502396 129.61201525 100.07357037 C125.96735292 103.73139675 122.30720835 107.37338434 118.64442968 111.01305747 C114.7006711 114.93733343 110.77130685 118.87597497 106.84017944 122.81289673 C99.13139067 130.52851671 91.40939842 138.23079237 83.68306953 145.92884336 C74.6880323 154.89208411 65.70668008 163.86898475 56.72605711 172.84666385 C40.69940361 188.86724648 24.66126739 204.87627201 8.61621094 220.87841797 C-6.95407601 236.40709045 -22.51772784 251.94236884 -38.07324219 267.48583984 C-38.55206368 267.96428677 -39.03088518 268.4427337 -39.52421642 268.93567902 C-43.3764701 272.78492439 -47.22870025 276.63419331 -51.08088695 280.48350572 C-68.16638201 297.55621996 -85.25751252 314.6232917 -102.34955001 331.68945581 C-105.03902442 334.37495042 -107.72836854 337.06057545 -110.41768074 339.74623251 C-119.83869971 349.15421412 -129.26137579 358.56052693 -138.68866175 367.96222912 C-142.58745498 371.85045376 -146.4855177 375.73940242 -150.38147354 379.63047028 C-153.94981805 383.19425166 -157.52047166 386.75570252 -161.09297723 390.31531252 C-162.38332757 391.60177656 -163.67286075 392.88906088 -164.96148092 394.177258 C-176.64985671 405.85997355 -176.64985671 405.85997355 -182.64059877 410.92442524 C-185.50137726 413.39178661 -188.1204935 416.09904833 -190.76171875 418.796875 C-191.9432288 419.99101462 -193.12487328 421.18502125 -194.30664062 422.37890625 C-196.13190382 424.229065 -197.95549266 426.08081989 -199.77661133 427.93505859 C-201.5588935 429.74758931 -203.34738704 431.55380707 -205.13671875 433.359375 C-205.67640793 433.9125238 -206.21609711 434.46567261 -206.7721405 435.0355835 C-210.44829731 438.73588837 -213.74701592 441.89236896 -218.99609375 442.7734375 C-223.63899209 442.11574002 -227.22316133 440.16350838 -231.3125 437.9375 C-232.15087402 437.48777832 -232.98924805 437.03805664 -233.85302734 436.57470703 C-241.28340086 432.485938 -247.77743571 427.78508947 -254.25 422.3125 C-255.0440625 421.68085937 -255.838125 421.04921875 -256.65625 420.3984375 C-280.25422999 400.87193998 -294.47617936 368.43520147 -297.859375 338.50390625 C-299.30107502 322.15081777 -299.35284009 305.27418314 -295.25 289.3125 C-295.05664062 288.53922363 -294.86328125 287.76594727 -294.6640625 286.96923828 C-284.78591719 248.48563052 -260.06365149 215.60060824 -226.03393555 195.06518555 C-211.23290885 186.44402307 -194.56746509 179.02082998 -177.16796875 178.78125 C-175.14394666 178.43245125 -175.14394666 178.43245125 -173.5234375 176.90234375 C-171.53305822 172.85442515 -171.76062826 168.82878462 -171.6875 164.375 C-171.41869062 156.20305591 -170.83461128 148.35080086 -169.25 140.3125 C-169.13317871 139.66845215 -169.01635742 139.0244043 -168.89599609 138.36083984 C-164.20294556 112.72497675 -153.15260448 88.8953832 -137.25 68.3125 C-136.59128906 67.43078125 -135.93257812 66.5490625 -135.25390625 65.640625 C-119.76354171 45.71150104 -100.62246646 29.82917402 -78.25 18.3125 C-77.59483398 17.96735352 -76.93966797 17.62220703 -76.26464844 17.26660156 C-64.13244265 10.92977019 -51.48648127 6.72452843 -38.25 3.3125 C-37.50186035 3.1175293 -36.7537207 2.92255859 -35.98291016 2.72167969 C-24.18104554 -0.1646309 -12.07410771 0.03578608 0 0 Z " fill="#666AF3" transform="translate(441.25,203.6875)"/>
<path d="M0 0 C5.126491 0.31478454 8.34819052 2.24075959 12.25 5.375 C12.81428711 5.82198242 13.37857422 6.26896484 13.95996094 6.72949219 C35.71518285 24.40176686 49.55161231 52.50167365 52.7578125 80.1796875 C54.81027864 112.55568569 48.89008306 148.30326007 26.93359375 173.65234375 C24.04229947 176.85797634 21.04811973 179.94336596 18 183 C17.14921875 183.85722656 16.2984375 184.71445312 15.421875 185.59765625 C-13.93428794 214.71707594 -50.95152498 222.57832622 -90.95347595 222.47883606 C-93.26305682 222.46737138 -95.57260871 222.45331211 -97.88217044 222.43850732 C-101.90678553 222.41684099 -105.93140583 222.41779221 -109.95606995 222.41581726 C-116.6819815 222.40943096 -123.40770703 222.38839434 -130.13354492 222.35668945 C-138.77345897 222.31601597 -147.41325395 222.29893532 -156.05325222 222.28938007 C-163.50869391 222.28110389 -170.96411042 222.26389072 -178.41953015 222.24434257 C-180.01545807 222.24029352 -181.6113868 222.23655398 -183.20731616 222.2331202 C-187.73535742 222.22336974 -192.2633267 222.20893742 -196.79132271 222.1862812 C-198.16320265 222.18014231 -199.53509133 222.1757013 -200.90698242 222.17303848 C-202.77084399 222.16907892 -204.63468753 222.15832962 -206.4985199 222.14717102 C-207.54308066 222.14289754 -208.58764143 222.13862406 -209.66385555 222.13422108 C-212 222 -212 222 -213 221 C-213.32748779 218.08604282 -213.36351523 216.53534884 -211.69358867 214.0760482 C-211.07464184 213.46062618 -210.45569501 212.84520417 -209.81799221 212.211133 C-209.10821301 211.49324866 -208.39843381 210.77536431 -207.66714615 210.03572589 C-206.4778418 208.8713374 -206.4778418 208.8713374 -205.26451111 207.6834259 C-204.43232184 206.8490812 -203.60013256 206.0147365 -202.74272543 205.15510863 C-200.42782215 202.83920234 -198.10204079 200.5348967 -195.77130044 198.23494947 C-193.26105523 195.75243088 -190.76526488 193.25545674 -188.26776123 190.76013184 C-183.93602819 186.43601647 -179.59539643 182.12100296 -175.24879265 177.81183815 C-168.95517526 171.57213748 -162.67683916 165.31724026 -156.40241999 159.05824157 C-146.21043997 148.89185665 -136.00844566 138.73558617 -125.79907227 128.58666992 C-125.18783241 127.97904451 -124.57659256 127.37141909 -123.94683028 126.74538078 C-122.7098564 125.51573073 -121.4728808 124.28608239 -120.23590351 123.05643578 C-119.62273186 122.44689766 -119.00956022 121.83735955 -118.37780762 121.20935059 C-117.76416006 120.59934508 -117.1505125 119.98933957 -116.51826956 119.36084904 C-109.71481929 112.59750626 -102.91372171 105.83179988 -96.11352539 99.06518555 C-95.50514912 98.4598191 -94.89677285 97.85445266 -94.26996093 97.23074178 C-84.11156071 87.12214507 -73.95922951 77.0074693 -63.81037527 66.88928908 C-57.55369863 60.65223663 -51.29116386 54.42117468 -45.02084989 48.19783183 C-40.71896635 43.92761327 -36.42232982 39.65216364 -32.12970244 35.37264059 C-29.65581032 32.90672315 -27.17950202 30.44336669 -24.69639778 27.98672295 C-21.99869685 25.3152656 -19.31051816 22.63456301 -16.62437439 19.95149231 C-15.84711988 19.18638692 -15.06986537 18.42128153 -14.26905769 17.63299114 C-9.71888536 13.06475863 -5.91737909 8.32817875 -2.32570559 2.97045535 C-1 1 -1 1 0 0 Z " fill="#676AF3" transform="translate(834,439)"/>
<path d="M0 0 C4.31833706 1.02936574 6.69337364 4.0135483 9.72315979 7.13548279 C10.41329666 7.82649582 11.10343353 8.51750885 11.81448364 9.22946167 C14.09827408 11.52184733 16.3639416 13.83133294 18.63014221 16.14109802 C20.21692042 17.73974696 21.80488461 19.33721953 23.39398193 20.93356323 C27.5824748 25.14684179 31.75619784 29.37445013 35.92658997 33.6056366 C41.78702935 39.5463081 47.66702844 45.46762773 53.54510498 51.39083862 C56.67445792 54.54428909 59.79817336 57.70316075 62.91744995 60.86657715 C64.3565649 62.32212538 65.79570639 63.77764736 67.23487854 65.23313904 C67.87151428 65.88122528 68.50815002 66.52931152 69.16407776 67.19703674 C72.21051017 70.27271024 75.30486547 73.2284874 78.58209229 76.05807495 C83.09680502 79.95692769 87.33090388 84.11033763 91.56764221 88.30711365 C92.84223549 89.56462181 92.84223549 89.56462181 94.14257812 90.84753418 C96.92685274 93.59705273 99.70721585 96.35048505 102.48561096 99.10594177 C102.96028305 99.576668 103.43495514 100.04739422 103.92401123 100.53238487 C108.40609504 104.97812877 112.88570963 109.42635049 117.3603363 113.87960052 C123.06180331 119.55340985 128.77465238 125.21521987 134.5030508 130.86184072 C138.54511097 134.84814518 142.57370846 138.84774423 146.59260654 142.85739756 C148.98831892 145.24685838 151.38957844 147.63004171 153.80558777 149.99899292 C156.49155833 152.63900492 159.15484967 155.30002086 161.81373596 157.9672699 C162.61468185 158.7446199 163.41562775 159.52196991 164.24084473 160.32287598 C169.47790158 165.64038412 169.47790158 165.64038412 170.40684509 170.38389587 C169.55330254 174.16840904 168.53271898 175.64355241 165.79273987 178.35984802 C164.9441037 179.21763855 164.09546753 180.07542908 163.22111511 180.95921326 C161.8245015 182.31575012 161.8245015 182.31575012 160.39967346 183.69969177 C159.43582479 184.65808882 158.47331113 185.61783016 157.5120697 186.57884216 C155.49311028 188.59007936 153.46310112 190.5891751 151.42359924 192.57957458 C148.83368655 195.10764465 146.2657297 197.65661573 143.70508766 200.21429443 C141.71557654 202.19905606 139.71808852 204.17562489 137.71789169 206.14961243 C136.31427188 207.53559104 134.91436625 208.92532795 133.51457214 210.31517029 C126.34317567 217.3043217 118.83417617 223.7837643 109.42311096 227.51219177 C108.46920471 227.90148865 107.51529846 228.29078552 106.53248596 228.69187927 C95.17861827 232.44548034 83.40281967 231.66022815 72.67311096 226.63719177 C64.38183255 222.42897415 58.18249909 216.69957104 51.70314026 210.12132263 C50.6466125 209.063664 49.58919807 208.00689049 48.53097534 206.95092773 C45.68345672 204.10454855 42.84837421 201.24607599 40.01548743 198.385144 C37.03823134 195.38271356 34.0494807 192.39176798 31.0619812 189.39953613 C25.411351 183.7365111 19.77098307 178.06337982 14.13430959 172.38646656 C7.7328369 165.94028264 1.32001044 159.50544517 -5.09381735 153.07155788 C-16.05872821 142.07196606 -27.01524707 131.06407449 -37.96205139 120.04646301 C-38.86320175 119.13953201 -39.76435211 118.23260101 -40.69281006 117.29818726 C-41.86105804 116.12214636 -41.86105804 116.12214636 -43.05290699 114.92234707 C-44.70455667 113.26258198 -46.35893511 111.60553089 -48.01495647 109.9501276 C-56.63260628 101.32873816 -62.41096292 92.48430535 -62.57688904 80.01219177 C-62.32347971 55.53285049 -41.9797898 40.03894298 -25.97825623 23.9384613 C-24.02979966 21.97653085 -22.0889318 20.00751696 -20.15403748 18.0322113 C-17.34547777 15.16506397 -14.51689578 12.31849042 -11.68626404 9.47312927 C-10.82160522 8.58580109 -9.95694641 7.6984729 -9.06608582 6.78425598 C-8.25464111 5.97566132 -7.44319641 5.16706665 -6.60716248 4.33396912 C-5.89928589 3.61800568 -5.1914093 2.90204224 -4.46208191 2.16438293 C-2.32688904 0.63719177 -2.32688904 0.63719177 0 0 Z " fill="#666AF3" transform="translate(274.32688903808594,630.3628082275391)"/>
<path d="M0 0 C1.21738255 1.02812559 2.40698965 2.09029522 3.5625 3.1875 C4.37460937 3.95707031 4.37460937 3.95707031 5.203125 4.7421875 C13.11363212 13.09216724 15.28263962 22.06127522 15.0793457 33.26635742 C14.54555227 45.10290272 10.09047027 52.03356352 1.5625 60.1875 C-8.06333682 68.00849241 -19.54610241 68.33672814 -31.4375 67.1875 C-40.49772284 65.43842223 -47.48151067 59.2318596 -53.0703125 52.10546875 C-54.3392399 50.17928255 -55.414805 48.25367649 -56.4375 46.1875 C-56.75460937 45.59839844 -57.07171875 45.00929688 -57.3984375 44.40234375 C-61.24858882 36.08389754 -60.60121694 25.13727189 -57.6015625 16.62890625 C-52.71903944 6.38871528 -45.68343788 -0.46213742 -35.1875 -4.625 C-23.1349914 -8.44162772 -10.60887929 -7.58067428 0 0 Z " fill="#F6F6F9" transform="translate(738.4375,331.8125)"/>
<path d="M0 0 C0.66 0.33 1.32 0.66 2 1 C1.51120361 1.48355957 1.02240723 1.96711914 0.51879883 2.46533203 C-1.71932739 4.68252137 -3.95343347 6.90372044 -6.1875 9.125 C-6.95642578 9.88554688 -7.72535156 10.64609375 -8.51757812 11.4296875 C-13.33794494 16.22798813 -13.33794494 16.22798813 -17.8125 21.34375 C-19.69922721 23.6347759 -21.53087667 25.49601608 -23.8125 27.375 C-24.71935547 28.12910156 -24.71935547 28.12910156 -25.64453125 28.8984375 C-26.09183594 29.26195312 -26.53914062 29.62546875 -27 30 C-27.66 29.67 -28.32 29.34 -29 29 C-19.43 19.43 -9.86 9.86 0 0 Z " fill="#E4E5F9" transform="translate(263,609)"/>
<path d="M0 0 C0.66 0.33 1.32 0.66 2 1 C-0.65180885 4.39763009 -3.29774746 7.34474501 -6.59375 10.125 C-11.46241485 14.33436649 -15.97505733 18.86465484 -20.5 23.4375 C-21.32242187 24.26443359 -22.14484375 25.09136719 -22.9921875 25.94335938 C-24.99712113 27.95994959 -26.99966253 29.97885236 -29 32 C-29 29 -29 29 -27.89904785 27.5382843 C-27.38386597 27.02976425 -26.86868408 26.5212442 -26.33789062 25.99731445 C-25.46698792 25.12675163 -25.46698792 25.12675163 -24.57849121 24.23860168 C-23.94415161 23.61974594 -23.30981201 23.0008902 -22.65625 22.36328125 C-22.0125647 21.72384079 -21.36887939 21.08440033 -20.70568848 20.42558289 C-18.64404404 18.38075857 -16.57222339 16.34659755 -14.5 14.3125 C-13.10218283 12.92972529 -11.70503847 11.54627009 -10.30859375 10.16210938 C-6.88015899 6.76678817 -3.44256036 3.38099586 0 0 Z " fill="#5B5FF2" transform="translate(330,572)"/>
</svg>
